<svg width="193" height="189" viewBox="0 0 193 189" fill="none" xmlns="http://www.w3.org/2000/svg">
<path d="M46.3885 188.721L104.513 138.222L125.087 117.648L107.9 102.623L88.4097 122.115L38.4781 180.812L46.3885 188.721ZM144.466 97.1692L192.711 42.3967L184.802 34.4878L129.578 82.22C134.281 86.923 141.006 93.6639 144.471 97.1614L144.466 97.1692Z" fill="#EAB308"/>
<path d="M146.326 188.721L154.234 180.81L113.945 134.193L99.6484 147.601L146.326 188.721ZM78.0131 128.035L94.1177 111.93L66.6021 84.4163L7.90878 34.4878L-7.62939e-05 42.3967L50.499 100.521L78.0115 128.033L78.0131 128.035Z" fill="white"/>
<path d="M175.226 157.369L183.135 149.459L127.285 84.8459L111.444 69.0032L95.424 85.194L111.179 100.951L175.226 157.369ZM75.3172 64.4695L92.6618 50.6458L36.8123 3.13469L28.9034 11.0435L75.3156 64.4679L75.3172 64.4695Z" fill="white"/>
<path d="M14.7508 154.232L58.9385 115.84L45.4503 100.932L6.84036 146.324L14.7508 154.232ZM80.254 96.3543L104.656 71.9521L161.073 7.90842L153.164 -0.000457764L88.5516 55.8475L65.0367 79.3624L80.2524 96.3528L80.254 96.3543Z" fill="#EAB308"/>
</svg>
